<?xml version="1.0" encoding="UTF-8" standalone="no"?>
<!-- Generator: Gravit.io -->
<svg xmlns="http://www.w3.org/2000/svg" xmlns:xlink="http://www.w3.org/1999/xlink" style="isolation:isolate" viewBox="46.5 102.887 1092 389" width="1092pt" height="389pt">
  <defs>
    <clipPath id="_clipPath_k1VBHeZqYPuEEwsAfAQBUjo0VyankRxf">
      <rect width="1440" height="720" />
    </clipPath>
  </defs>
  <g clip-path="url(#_clipPath_k1VBHeZqYPuEEwsAfAQBUjo0VyankRxf)">
    <g style="isolation:isolate">
      <g>
        <path d=" M 154 275.667 L 331 209.667 L 460 292.667 L 280 368.667 L 154 275.667 Z " fill="rgb(255,235,61)" vector-effect="non-scaling-stroke" stroke-width="3" stroke="rgb(44,46,53)" stroke-linejoin="miter" stroke-linecap="round" stroke-miterlimit="3" style="mix-blend-mode:source-over;" />
        <g opacity="0.5">
          <path d=" M 922.342 276.136 L 1021.535 239.478 L 1012.825 233.575 L 1051.2 237.192 L 1046.802 256.594 L 1038.089 250.691 L 938.895 287.35" fill="rgb(255,255,255)" />
        </g>
        <g clip-path="url(#_clipPath_CIHTjTJxQyNvJhO3jaFpPBtFCenUGfJU)">
          <text transform="matrix(1.5,0,0,1.5,1055.797,371.667)" style="font-family:'TimesNewRomanPS-ItalicMT';font-weight:400;font-size:16px;font-style:italic;font-variant-ligatures:none;fill:[Object GRGBColor];stroke:none;">x</text>
        </g>
        <defs>
          <clipPath id="_clipPath_CIHTjTJxQyNvJhO3jaFpPBtFCenUGfJU">
            <rect x="0" y="0" width="10" height="17.719" transform="matrix(1.5,0,0,1.5,1055,350.28)" />
          </clipPath>
        </defs>
        <path d=" M 1029.192 357.638 L 1035.955 353.278 L 1037.516 345.383 L 1047.876 361.375 L 1029.192 357.638 Z " fill="rgb(44,46,53)" />
        <line x1="932" y1="282.667" x2="1038" y2="354.667" vector-effect="non-scaling-stroke" stroke-width="2" stroke="rgb(44,46,53)" stroke-linejoin="miter" stroke-linecap="butt" stroke-miterlimit="3" style="mix-blend-mode:source-over;" />
        <path d=" M 1102.392 225.589 L 1102.69 217.548 L 1097.111 211.748 L 1116.154 212.412 L 1102.392 225.589 Z " fill="rgb(44,46,53)" />
        <line x1="932" y1="282.667" x2="1105" y2="216.667" vector-effect="non-scaling-stroke" stroke-width="2" stroke="rgb(44,46,53)" stroke-linejoin="miter" stroke-linecap="butt" stroke-miterlimit="3" style="mix-blend-mode:source-over;" />
        <path d=" M 779 275.667 L 956 209.667 L 1085 292.667 L 905 368.667 L 779 275.667 Z " fill="none" vector-effect="non-scaling-stroke" stroke-width="2" stroke-dasharray="4,4" stroke="rgb(44,46,53)" stroke-linejoin="miter" stroke-linecap="round" stroke-miterlimit="3" style="mix-blend-mode:source-over;" />
        <g opacity="0.3">
          <path d=" M 922.342 276.136 L 1021.535 239.478 L 1012.825 233.575 L 1051.2 237.192 L 1046.802 256.594 L 1038.089 250.691 L 938.895 287.35" fill="none" vector-effect="non-scaling-stroke" stroke-width="3" stroke="rgb(44,46,53)" stroke-linejoin="miter" stroke-linecap="round" stroke-miterlimit="3" style="mix-blend-mode:source-over;" />
        </g>
        <g opacity="0.5">
          <path d=" M 297.5 275.914 L 297.5 171.914 L 287.5 165.797 L 307 158.226 L 326.5 189.654 L 316.5 183.537 L 316.5 287.537" fill="rgb(255,255,255)" />
        </g>
        <g opacity="0.5">
          <path d=" M 869 147.667 L 1004 226.667 L 995 423.667 L 870 333.667 L 869 147.667 Z " fill="rgb(255,235,61)" vector-effect="non-scaling-stroke" stroke-width="3" stroke="rgb(44,46,53)" stroke-linejoin="miter" stroke-linecap="round" stroke-miterlimit="3" style="mix-blend-mode:source-over;" />
        </g>
        <g clip-path="url(#_clipPath_Rc5OJmzBsIEyAV23Mfp1B6JUFGW1U9Lt)">
          <text transform="matrix(2.25,0,0,2.25,776.248,158.498)" style="font-family:'Calibri-Bold';font-weight:700;font-size:16px;font-style:normal;font-variant-ligatures:none;fill:[Object GRGBColor];stroke:none;">2</text>
        </g>
        <defs>
          <clipPath id="_clipPath_Rc5OJmzBsIEyAV23Mfp1B6JUFGW1U9Lt">
            <rect x="0" y="0" width="11" height="16" transform="matrix(2.25,0,0,2.25,776.248,131.498)" />
          </clipPath>
        </defs>
        <g clip-path="url(#_clipPath_6nbpsQClEMhR3R7aVbmSpUxorQIKnYwU)">
          <text transform="matrix(2.25,0,0,2.25,892.248,291.498)" style="font-family:'Calibri-Bold';font-weight:700;font-size:16px;font-style:normal;font-variant-ligatures:none;fill:[Object GRGBColor];stroke:none;">1</text>
        </g>
        <defs>
          <clipPath id="_clipPath_6nbpsQClEMhR3R7aVbmSpUxorQIKnYwU">
            <rect x="0" y="0" width="11" height="16" transform="matrix(2.25,0,0,2.25,892.248,264.498)" />
          </clipPath>
        </defs>
        <path d=" M 878.096 147.667 C 878.096 142.644 874.023 138.571 869 138.571 C 863.977 138.571 859.904 142.644 859.904 147.667 C 859.904 152.69 863.977 156.763 869 156.763 C 874.023 156.763 878.096 152.69 878.096 147.667 Z " fill="none" vector-effect="non-scaling-stroke" stroke-width="3" stroke="rgb(255,255,255)" stroke-linejoin="miter" stroke-linecap="butt" stroke-miterlimit="3" style="mix-blend-mode:source-over;" />
        <path d=" M 745.018 177.013 L 744.029 189.042 L 752.002 198.108 L 723.51 195.836 L 745.018 177.013 Z " fill="rgb(255,46,23)" />
        <path d=" M 914.096 368.667 C 914.096 363.644 910.023 359.571 905 359.571 C 899.977 359.571 895.904 363.644 895.904 368.667 C 895.904 373.69 899.977 377.763 905 377.763 C 910.023 377.763 914.096 373.69 914.096 368.667 Z " fill="none" vector-effect="non-scaling-stroke" stroke-width="3" stroke="rgb(255,255,255)" stroke-linejoin="miter" stroke-linecap="butt" stroke-miterlimit="3" style="mix-blend-mode:source-over;" />
        <path d=" M 914.096 368.667 C 914.096 363.644 910.023 359.571 905 359.571 C 899.977 359.571 895.904 363.644 895.904 368.667 C 895.904 373.69 899.977 377.763 905 377.763 C 910.023 377.763 914.096 373.69 914.096 368.667 Z " fill="rgb(255,46,23)" />
        <g opacity="0.75">
          <path d=" M 721 196.667 L 844 282.667 L 849 488.667 L 728 385.667 L 721 196.667 Z " fill="rgb(255,235,61)" vector-effect="non-scaling-stroke" stroke-width="3" stroke="rgb(44,46,53)" stroke-linejoin="miter" stroke-linecap="round" stroke-miterlimit="3" style="mix-blend-mode:source-over;" />
        </g>
        <path d=" M 979.99 250.302 L 979.641 238.237 L 970.715 230.108 L 999.283 229.215 L 979.99 250.302 Z " fill="rgb(255,46,23)" />
        <g clip-path="url(#_clipPath_2i71ow2P2ZXO2rULo2V4SVGRqG6R8c9m)">
          <text transform="matrix(1.5,0,0,1.5,1125,217.932)" style="font-family:'Open Sans';font-weight:400;font-size:16px;font-style:normal;font-variant-ligatures:none;fill:[Object GRGBColor];stroke:none;">y</text>
        </g>
        <defs>
          <clipPath id="_clipPath_2i71ow2P2ZXO2rULo2V4SVGRqG6R8c9m">
            <rect x="0" y="0" width="11" height="21.789" transform="matrix(1.5,0,0,1.5,1125,192.28)" />
          </clipPath>
        </defs>
        <g clip-path="url(#_clipPath_NDMWMROqsUw65XXaPEf8eJxxuP4q8fu5)">
          <text transform="matrix(1.5,0,0,1.5,927,121.932)" style="font-family:'Open Sans';font-weight:400;font-size:16px;font-style:normal;font-variant-ligatures:none;fill:[Object GRGBColor];stroke:none;">z</text>
        </g>
        <defs>
          <clipPath id="_clipPath_NDMWMROqsUw65XXaPEf8eJxxuP4q8fu5">
            <rect x="0" y="0" width="10" height="21.789" transform="matrix(1.5,0,0,1.5,927,96.28)" />
          </clipPath>
        </defs>
        <path d=" M 939.406 145.284 L 932 142.139 L 924.592 145.284 L 932 127.729 L 939.406 145.284 Z " fill="rgb(44,46,53)" />
        <line x1="932" y1="282.667" x2="932" y2="139.667" vector-effect="non-scaling-stroke" stroke-width="2" stroke="rgb(44,46,53)" stroke-linejoin="miter" stroke-linecap="butt" stroke-miterlimit="3" style="mix-blend-mode:source-over;" />
        <g opacity="0.5">
          <path d=" M 297.5 275.914 L 297.5 171.914 L 287.5 165.797 L 307 158.226 L 326.5 189.654 L 316.5 183.537 L 316.5 287.537" fill="none" vector-effect="non-scaling-stroke" stroke-width="3" stroke="rgb(44,46,53)" stroke-linejoin="miter" stroke-linecap="round" stroke-miterlimit="3" style="mix-blend-mode:source-over;" />
        </g>
        <path d=" M 468.333 292.667 C 468.333 288.065 464.602 284.334 460 284.334 C 455.398 284.334 451.667 288.065 451.667 292.667 C 451.667 297.27 455.398 301 460 301 C 464.602 301 468.333 297.27 468.333 292.667 Z " fill="rgb(44,46,53)" />
        <path d=" M 162.333 275.667 C 162.333 271.065 158.602 267.334 154 267.334 C 149.398 267.334 145.667 271.065 145.667 275.667 C 145.667 280.27 149.398 284 154 284 C 158.602 284 162.333 280.27 162.333 275.667 Z " fill="rgb(44,46,53)" />
        <g clip-path="url(#_clipPath_Or6B5rrQgdb3EbY7JBoFJLCkC77JtAxq)">
          <text transform="matrix(1.5,0,0,1.5,44.5,240.167)" style="font-family:'Calibri';font-weight:400;font-size:16px;font-style:normal;font-variant-ligatures:none;fill:[Object GRGBColor];stroke:none;">(-1.175, -1.2628)</text>
        </g>
        <defs>
          <clipPath id="_clipPath_Or6B5rrQgdb3EbY7JBoFJLCkC77JtAxq">
            <rect x="0" y="0" width="111" height="16" transform="matrix(1.5,0,0,1.5,44.5,222.167)" />
          </clipPath>
        </defs>
        <path d=" M 905 368.667 C 905 316.013 934.373 259.028 983.01 236.689" fill="none" vector-effect="non-scaling-stroke" stroke-width="5" stroke="rgb(255,46,23)" stroke-linejoin="miter" stroke-linecap="round" stroke-miterlimit="3" style="mix-blend-mode:source-over;" />
        <line x1="869" y1="147.667" x2="740.51" y2="190.208" vector-effect="non-scaling-stroke" stroke-width="5" stroke="rgb(255,46,23)" stroke-linejoin="miter" stroke-linecap="round" stroke-miterlimit="3" style="mix-blend-mode:source-over;" />
        <path d=" M 878.096 147.667 C 878.096 142.644 874.023 138.571 869 138.571 C 863.977 138.571 859.904 142.644 859.904 147.667 C 859.904 152.69 863.977 156.763 869 156.763 C 874.023 156.763 878.096 152.69 878.096 147.667 Z " fill="rgb(255,46,23)" />
        <g clip-path="url(#_clipPath_8SeAgSOFQ2tMn6Yi2O6y1zcwaifzpUfR)">
          <text transform="matrix(1.5,0,0,1.5,433.5,333.167)" style="font-family:'Calibri';font-weight:400;font-size:16px;font-style:normal;font-variant-ligatures:none;fill:[Object GRGBColor];stroke:none;">(1.175, 1.2628)</text>
        </g>
        <defs>
          <clipPath id="_clipPath_8SeAgSOFQ2tMn6Yi2O6y1zcwaifzpUfR">
            <rect x="0" y="0" width="101" height="16" transform="matrix(1.5,0,0,1.5,433.5,315.167)" />
          </clipPath>
        </defs>
        <g clip-path="url(#_clipPath_CZdd2Xi4zj8EfaNLQRhxyxVaOKF18lv1)">
          <text transform="matrix(1.5,0,0,1.5,430,375.932)" style="font-family:'Open Sans';font-weight:400;font-size:16px;font-style:normal;font-variant-ligatures:none;fill:[Object GRGBColor];stroke:none;">x</text>
        </g>
        <defs>
          <clipPath id="_clipPath_CZdd2Xi4zj8EfaNLQRhxyxVaOKF18lv1">
            <rect x="0" y="0" width="11" height="21.789" transform="matrix(1.5,0,0,1.5,430,350.28)" />
          </clipPath>
        </defs>
        <g clip-path="url(#_clipPath_Ec7xs0VKbQfkPNarfb2xETnwRiKpMnzz)">
          <text transform="matrix(1.5,0,0,1.5,500,217.932)" style="font-family:'Open Sans';font-weight:400;font-size:16px;font-style:normal;font-variant-ligatures:none;fill:[Object GRGBColor];stroke:none;">y</text>
        </g>
        <defs>
          <clipPath id="_clipPath_Ec7xs0VKbQfkPNarfb2xETnwRiKpMnzz">
            <rect x="0" y="0" width="11" height="21.789" transform="matrix(1.5,0,0,1.5,500,192.28)" />
          </clipPath>
        </defs>
        <g clip-path="url(#_clipPath_Sz8ttGaO6WIPaMaejDRB1TVzlJRCfS4g)">
          <text transform="matrix(1.5,0,0,1.5,302,121.932)" style="font-family:'Open Sans';font-weight:400;font-size:16px;font-style:normal;font-variant-ligatures:none;fill:[Object GRGBColor];stroke:none;">z</text>
        </g>
        <defs>
          <clipPath id="_clipPath_Sz8ttGaO6WIPaMaejDRB1TVzlJRCfS4g">
            <rect x="0" y="0" width="10" height="21.789" transform="matrix(1.5,0,0,1.5,302,96.28)" />
          </clipPath>
        </defs>
        <path d=" M 404.192 357.638 L 410.955 353.278 L 412.516 345.383 L 422.876 361.375 L 404.192 357.638 Z " fill="rgb(44,46,53)" />
        <line x1="307" y1="282.667" x2="413" y2="354.667" vector-effect="non-scaling-stroke" stroke-width="2" stroke="rgb(44,46,53)" stroke-linejoin="miter" stroke-linecap="butt" stroke-miterlimit="3" style="mix-blend-mode:source-over;" />
        <path d=" M 314.406 145.284 L 307 142.139 L 299.592 145.284 L 307 127.729 L 314.406 145.284 Z " fill="rgb(44,46,53)" />
        <line x1="307" y1="282.667" x2="307" y2="139.667" vector-effect="non-scaling-stroke" stroke-width="2" stroke="rgb(44,46,53)" stroke-linejoin="miter" stroke-linecap="butt" stroke-miterlimit="3" style="mix-blend-mode:source-over;" />
        <path d=" M 477.392 225.589 L 477.69 217.548 L 472.111 211.748 L 491.154 212.412 L 477.392 225.589 Z " fill="rgb(44,46,53)" />
        <line x1="307" y1="282.667" x2="480" y2="216.667" vector-effect="non-scaling-stroke" stroke-width="2" stroke="rgb(44,46,53)" stroke-linejoin="miter" stroke-linecap="butt" stroke-miterlimit="3" style="mix-blend-mode:source-over;" />
        <g clip-path="url(#_clipPath_5FBDQyAum13IVhhv0ienoCijHhB0px79)">
          <text transform="matrix(1,0,0,1,61,121.539)" style="font-family:'Open Sans';font-weight:700;font-size:24px;font-style:normal;fill:#000000;stroke:none;">a)</text>
        </g>
        <defs>
          <clipPath id="_clipPath_5FBDQyAum13IVhhv0ienoCijHhB0px79">
            <rect x="0" y="0" width="25" height="32.684" transform="matrix(1,0,0,1,61,95.887)" />
          </clipPath>
        </defs>
        <g clip-path="url(#_clipPath_OwNFBkbWDrL2yBIHrEOErETBDFzFDw4t)">
          <text transform="matrix(1,0,0,1,641,121.539)" style="font-family:'Open Sans';font-weight:700;font-size:24px;font-style:normal;fill:#000000;stroke:none;">b)</text>
        </g>
        <defs>
          <clipPath id="_clipPath_OwNFBkbWDrL2yBIHrEOErETBDFzFDw4t">
            <rect x="0" y="0" width="26" height="32.684" transform="matrix(1,0,0,1,641,95.887)" />
          </clipPath>
        </defs>
      </g>
    </g>
  </g>
</svg>
